<?xml version="1.0" encoding="utf-8"?>
<svg viewBox="0 0 500 500" xmlns="http://www.w3.org/2000/svg">
  <g transform="matrix(1, 0, 0, 1, 5.9235, -0.214502)">
    <path d="M 335.176 363.148 C 331.492 361.137 327.413 359.215 323.095 357.182 C 308.45 350.284 291.971 342.513 280.335 326.847 L 360.414 259.152 C 365.212 255.112 368.151 249.445 368.687 243.196 C 369.092 238.473 368.088 233.847 365.831 229.797 C 369.113 226.045 371.297 221.283 371.925 216.257 C 372.744 209.693 370.97 203.435 366.931 198.638 L 358.673 188.829 C 354.633 184.031 348.967 181.093 342.717 180.556 C 336.472 180.019 330.384 181.949 325.555 186.014 L 256.322 245.415 C 256.1 238.663 255.631 230.757 254.7 222.624 C 252.174 200.541 247.175 185.08 239.794 176.414 C 248.454 174.82 256.836 171.636 264.572 166.902 C 281.114 156.779 292.724 140.819 297.263 121.964 C 303.101 97.713 295.88 71.844 278.419 54.056 L 274.129 18.182 C 273.327 11.469 267.627 6.406 260.872 6.406 C 260.341 6.406 259.803 6.438 259.273 6.502 L 168.775 17.325 C 161.459 18.202 156.219 24.866 157.094 32.181 L 161.879 72.2 C 159.356 77.2 157.403 82.499 156.084 87.981 C 150.023 113.156 157.955 138.473 174.835 155.76 C 169.228 159.132 159.339 166.031 148.806 177.845 C 134.367 194.04 115.898 223.012 109.917 269.072 C 105.561 302.605 103.367 351.164 108.842 378.54 L 109.119 379.93 C 112.397 396.409 116.571 417.359 141.543 426.069 C 131.715 428.902 121.727 433.439 114.231 440.7 C 106.108 448.568 101.99 458.547 101.99 470.359 L 101.99 489.773 C 101.99 490.902 102.439 491.984 103.238 492.781 C 104.035 493.577 105.115 494.023 106.24 494.023 C 106.243 494.023 106.245 494.023 106.248 494.023 L 313.906 493.646 C 334.619 493.646 352.076 489.2 364.391 480.79 C 378.634 471.062 386.163 455.918 386.163 436.996 C 386.163 397.021 374.678 384.713 335.176 363.148 Z" style="fill: rgb(255, 255, 255);"/>
    <path d="M 180.337 184.909 C 182.473 183.948 183.429 181.439 182.473 179.3 C 181.516 177.158 179.002 176.197 176.859 177.154 C 175.036 177.969 132.094 197.926 122.854 269.073 C 122.552 271.401 124.194 273.532 126.522 273.835 C 126.708 273.859 126.892 273.871 127.075 273.871 C 129.179 273.871 131.006 272.31 131.285 270.168 C 135.781 235.547 148.885 214.212 159.085 202.41 C 170.066 189.703 180.144 184.998 180.337 184.909 Z"/>
    <path d="M 335.176 363.148 C 331.492 361.137 327.413 359.215 323.095 357.182 C 308.45 350.284 291.971 342.513 280.335 326.847 L 360.414 259.152 C 365.212 255.112 368.151 249.445 368.687 243.196 C 369.092 238.473 368.088 233.847 365.831 229.797 C 369.113 226.045 371.297 221.283 371.925 216.257 C 372.744 209.693 370.97 203.435 366.931 198.638 L 358.673 188.829 C 354.633 184.031 348.967 181.093 342.717 180.556 C 336.472 180.019 330.384 181.949 325.555 186.014 L 256.322 245.415 C 256.1 238.663 255.631 230.757 254.7 222.624 C 252.174 200.541 247.175 185.08 239.794 176.414 C 248.454 174.82 256.836 171.636 264.572 166.902 C 281.114 156.779 292.724 140.819 297.263 121.964 C 303.101 97.713 295.88 71.844 278.419 54.056 L 274.129 18.182 C 273.327 11.469 267.627 6.406 260.872 6.406 C 260.341 6.406 259.803 6.438 259.273 6.502 L 168.775 17.325 C 161.459 18.202 156.219 24.866 157.094 32.181 L 161.879 72.2 C 159.356 77.2 157.403 82.499 156.084 87.981 C 150.023 113.156 157.955 138.473 174.835 155.76 C 169.228 159.132 159.339 166.031 148.806 177.845 C 134.367 194.04 115.898 223.012 109.917 269.072 C 105.561 302.605 103.367 351.164 108.842 378.54 L 109.119 379.93 C 112.397 396.409 116.571 417.359 141.543 426.069 C 131.715 428.902 121.727 433.439 114.231 440.7 C 106.108 448.568 101.99 458.547 101.99 470.359 L 101.99 489.773 C 101.99 490.902 102.439 491.984 103.238 492.781 C 104.035 493.577 105.115 494.023 106.24 494.023 C 106.243 494.023 106.245 494.023 106.248 494.023 L 313.906 493.646 C 334.619 493.646 352.076 489.2 364.391 480.79 C 378.634 471.062 386.163 455.918 386.163 436.996 C 386.163 397.021 374.678 384.713 335.176 363.148 Z M 360.219 242.469 C 359.877 246.456 358.002 250.072 354.934 252.655 L 263.94 329.578 C 261.243 331.85 257.82 333.101 254.301 333.1 C 249.864 333.1 245.684 331.156 242.83 327.767 L 168.474 239.45 C 165.897 236.389 164.666 232.507 165.008 228.52 C 165.264 225.538 166.378 222.765 168.204 220.477 L 208.193 270.365 C 209.032 271.412 210.266 271.957 211.511 271.957 C 212.444 271.957 213.383 271.652 214.167 271.023 C 215.998 269.555 216.293 266.88 214.825 265.049 L 174.524 214.772 L 180.094 210.082 C 182.791 207.811 186.215 206.561 189.734 206.561 C 194.171 206.561 198.351 208.505 201.205 211.894 L 254.761 275.507 C 255.487 276.369 256.526 276.908 257.649 277.004 C 258.774 277.1 259.888 276.746 260.75 276.021 L 327.384 219.92 C 330.081 217.649 333.505 216.398 337.024 216.398 C 341.46 216.398 345.641 218.342 348.494 221.731 L 356.753 231.541 C 359.33 234.6 360.561 238.482 360.219 242.469 Z M 331.061 192.492 C 334.122 189.915 338.005 188.685 341.991 189.026 C 345.978 189.368 349.593 191.243 352.171 194.304 L 360.429 204.113 C 362.926 207.078 364.013 211.017 363.491 215.205 C 363.147 217.965 362.099 220.597 360.531 222.829 L 354.996 216.255 C 350.524 210.943 343.973 207.897 337.024 207.897 C 331.505 207.897 326.137 209.857 321.91 213.417 L 258.527 266.781 L 256.387 264.239 C 256.431 262.846 256.496 260.132 256.499 256.466 L 331.061 192.492 Z M 164.347 89.97 C 165.442 85.422 167.025 81.014 169.059 76.838 L 272.885 60.548 C 287.927 76.237 294.096 98.808 289 119.977 C 284.992 136.625 274.742 150.716 260.136 159.654 C 245.53 168.592 228.318 171.307 211.67 167.299 C 177.303 159.026 156.074 124.336 164.347 89.97 Z M 168.163 421.546 C 127.163 423.658 121.663 399.423 117.456 378.271 L 117.177 376.873 C 111.891 350.441 114.077 303.031 118.346 270.167 C 124.016 226.507 141.318 199.134 154.834 183.859 C 166.495 170.68 177.422 163.979 181.463 161.761 C 189.506 168.184 199.031 173 209.681 175.564 C 215.365 176.933 221.107 177.609 226.808 177.609 C 227.11 177.609 227.412 177.597 227.714 177.593 C 244.266 184.469 247.925 228.493 248.033 254.316 L 207.708 206.418 C 203.235 201.106 196.685 198.06 189.735 198.06 C 184.216 198.06 178.848 200.02 174.621 203.58 L 164.813 211.838 C 160.015 215.878 157.077 221.544 156.54 227.793 C 156.004 234.042 157.933 240.126 161.973 244.924 L 236.328 333.241 C 240.8 338.554 247.35 341.6 254.301 341.6 C 254.302 341.6 254.302 341.6 254.302 341.6 C 259.821 341.6 265.189 339.64 269.422 336.075 L 273.833 332.346 C 286.747 349.451 304.786 357.952 319.475 364.872 C 323.675 366.85 327.642 368.719 331.104 370.61 C 338.657 374.733 345.015 378.43 350.371 381.957 L 337.01 381.957 C 334.663 381.957 332.76 383.86 332.76 386.207 C 332.76 388.554 334.663 390.457 337.01 390.457 L 361.641 390.457 C 364.901 393.375 367.526 396.325 369.638 399.457 L 331.51 399.457 C 329.163 399.457 327.26 401.36 327.26 403.707 C 327.26 406.054 329.163 407.957 331.51 407.957 L 373.978 407.957 C 376.798 415.627 377.663 424.776 377.663 436.997 C 377.663 478.892 337.718 485.147 313.899 485.147 L 110.491 485.516 L 110.491 470.456 L 153.01 470.456 C 155.357 470.456 157.26 468.553 157.26 466.206 C 157.26 463.859 155.357 461.956 153.01 461.956 L 111.417 461.956 C 112.782 456.147 115.668 451.149 120.133 446.819 C 133.314 434.036 156.722 430.752 169.115 430.04 C 233.54 426.342 254.491 428.438 260.431 429.408 C 262.169 429.691 263.67 429.936 265.677 429.936 C 268.024 429.936 269.927 428.033 269.927 425.686 C 269.927 423.339 268.024 421.436 265.677 421.436 C 264.359 421.436 263.396 421.279 261.8 421.019 C 255.091 419.924 233.363 418.001 168.163 421.546 Z" style=""/>
    <path d="M 224.509 461.956 L 175.509 461.956 C 173.162 461.956 171.259 463.859 171.259 466.206 C 171.259 468.553 173.162 470.456 175.509 470.456 L 224.509 470.456 C 226.856 470.456 228.759 468.553 228.759 466.206 C 228.759 463.859 226.856 461.956 224.509 461.956 Z"/>
  </g>
</svg>